<?xml version="1.0" encoding="utf-8"?>
<!DOCTYPE svg PUBLIC "-//W3C//DTD SVG 1.1//EN" "http://www.w3.org/Graphics/SVG/1.1/DTD/svg11.dtd">
<svg style="width:308px;height:308px;" version="1.1" id="图形" xmlns="http://www.w3.org/2000/svg" xmlns:xlink="http://www.w3.org/1999/xlink" x="0px" y="0px" width="1024px" height="1024px" viewBox="0 0 1024 1024" enable-background="new 0 0 1024 1024" xml:space="preserve">
  <path class="svgpath" data-index="path_0" fill="#272636" d="M945.803 278.649c-13.447-19.066-35.439-30.423-58.795-30.423L223.855 248.226 201.26 144.519c-0.15-0.681-0.616-1.187-0.813-1.841-0.452-1.416-1.074-2.728-1.801-4.023-0.643-1.188-1.374-2.302-2.214-3.339-0.92-1.075-1.873-1.958-2.995-2.84-1.117-0.885-2.184-1.647-3.461-2.301-1.178-0.654-2.371-1.083-3.68-1.501-1.45-0.456-2.876-0.732-4.411-0.873-0.646-0.046-1.229-0.391-1.911-0.391L86.781 127.41c-12.041 0-21.789 9.703-21.789 21.751 0 12.009 9.741 21.71 21.789 21.71l75.665 0 22.594 103.634 68.302 345.515c9.393 47.401 51.285 81.833 99.634 81.833l402.965 0c42.904 0 81.336-27.137 95.73-67.49l103.213-290.107-0.012 0.015C962.662 322.242 959.338 297.721 945.803 278.649z" />
<path class="svgpath" data-index="path_1" fill="#272636" d="M337.166 749.028c-48.391 0-87.745 39.314-87.745 87.651 0 48.346 39.359 87.683 87.745 87.683 48.416 0 87.79-39.333 87.79-87.683C424.955 788.335 385.589 749.028 337.166 749.028z" />
<path class="svgpath" data-index="path_2" fill="#272636" d="M725.051 749.028c-48.363 0-87.729 39.314-87.729 87.651 0 48.346 39.359 87.683 87.729 87.683 48.404 0 87.758-39.333 87.758-87.683C812.809 788.335 773.453 749.028 725.051 749.028z" />

</svg>
