<?xml version="1.0" standalone="no"?>
<!DOCTYPE svg PUBLIC "-//W3C//DTD SVG 1.1//EN" "http://www.w3.org/Graphics/SVG/1.1/DTD/svg11.dtd" >
<svg xmlns="http://www.w3.org/2000/svg">
<metadata>
Created by FontForge 20120731 at Sat Dec 31 14:54:53 2016
 By admin
</metadata>
<defs>
<font id="iconfont" horiz-adv-x="1024" >
  <font-face 
    font-family="iconfont"
    font-weight="500"
    font-stretch="normal"
    units-per-em="1024"
    panose-1="2 0 6 3 0 0 0 0 0 0"
    ascent="896"
    descent="-128"
    x-height="792"
    bbox="44 -66 977 849"
    underline-thickness="0"
    underline-position="0"
    unicode-range="U+0078-E7B8"
  />
<missing-glyph 
 />
    <glyph glyph-name=".notdef" 
 />
    <glyph glyph-name=".notdef" 
 />
    <glyph glyph-name=".null" horiz-adv-x="0" 
 />
    <glyph glyph-name="nonmarkingreturn" horiz-adv-x="341" 
 />
    <glyph glyph-name="x" unicode="x" horiz-adv-x="1001" 
d="M281 543q-27 -1 -53 -1h-83q-18 0 -36.5 -6t-32.5 -18.5t-23 -32t-9 -45.5v-76h912v41q0 16 -0.5 30t-0.5 18q0 13 -5 29t-17 29.5t-31.5 22.5t-49.5 9h-133v-97h-438v97zM955 310v-52q0 -23 0.5 -52t0.5 -58t-10.5 -47.5t-26 -30t-33 -16t-31.5 -4.5q-14 -1 -29.5 -0.5
t-29.5 0.5h-32l-45 128h-439l-44 -128h-29h-34q-20 0 -45 1q-25 0 -41 9.5t-25.5 23t-13.5 29.5t-4 30v167h911zM163 247q-12 0 -21 -8.5t-9 -21.5t9 -21.5t21 -8.5q13 0 22 8.5t9 21.5t-9 21.5t-22 8.5zM316 123q-8 -26 -14 -48q-5 -19 -10.5 -37t-7.5 -25t-3 -15t1 -14.5
t9.5 -10.5t21.5 -4h37h67h81h80h64h36q23 0 34 12t2 38q-5 13 -9.5 30.5t-9.5 34.5q-5 19 -11 39h-368zM336 498v228q0 11 2.5 23t10 21.5t20.5 15.5t34 6h188q31 0 51.5 -14.5t20.5 -52.5v-227h-327z" />
    <glyph glyph-name="check" unicode="&#xe645;" 
d="M888 598q-10 9 -23 8.5t-22 -10.5l-427 -454l-233 230q-10 9 -23 9t-22.5 -9.5t-9.5 -23t10 -22.5l256 -253h1v0q1 -1 7 -4q0 -1 1 -1.5t2 -1.5q6 -2 12 -2t12 3q1 0 2 1t2 1q5 3 7 5v0v0l449 479q9 9 9 22.5t-10 22.5z" />
    <glyph glyph-name="close" unicode="&#xe646;" 
d="M557 383l266 264q9 9 9 22t-9.5 22.5t-22.5 9.5t-23 -9l-265 -264l-263 264q-9 9 -22.5 9t-23 -9t-9.5 -22.5t10 -22.5l263 -264l-265 -264q-10 -9 -10 -22.5t9.5 -22.5t22.5 -9t23 9l265 264l265 -267q10 -9 23 -9t22.5 9.5t9.5 22.5t-9 23z" />
    <glyph glyph-name="shop" unicode="&#xe676;" 
d="M925 533v2q-1 2 -1 5l-71 175q-9 27 -33 42.5t-55 15.5h-493q-31 0 -54 -15t-32 -42l-75 -178l-2 -4q-8 -26 -8 -52q0 -46 23.5 -85t64.5 -61v0v0v0v0q33 -17 77 -17q77 0 126 58q49 -58 126 -58q76 0 124 58q49 -58 126 -58q46 0 79 19q40 21 63 60t23 85q0 26 -8 50z
M819 390q-21 -11 -51 -11q-58 0 -89 50q-4 8 -8 13q-11 12 -29 12t-29 -13q-4 -4 -7 -12q-15 -23 -38.5 -36.5t-49.5 -13.5q-58 0 -89 50q-4 7 -7 11q-11 13 -30 13t-28 -11q-5 -6 -9 -14q-31 -49 -89 -50q-29 0 -49 11v0v0q-26 14 -41 39t-15 54q0 17 6 34q0 1 1 3l74 176
q6 18 29 18h494q26 -1 32 -19l70 -174q0 -1 1 -3q5 -17 5 -34q0 -29 -14.5 -54t-39.5 -39zM841.5 294q-12.5 0 -21.5 -9t-9 -21v-164q0 -7 -5 -12t-12 -5h-564q-7 0 -12 5t-5 12v161q0 12 -9 21t-21 9v0q-13 0 -21.5 -9t-8.5 -21v-161q0 -32 22.5 -54.5t54.5 -22.5h564
q32 0 54.5 23t22.5 54v164q0 12 -8.5 21t-21 9zM752 504h-480q-12 0 -21 9t-9 21t9 21t21 9h480q12 0 21 -9t9 -21t-9 -21t-21 -9z" />
    <glyph glyph-name="time" unicode="&#xe606;" 
d="M511 821q-89 0 -169.5 -34.5t-139 -93t-93 -139t-34.5 -169.5t34.5 -169.5t93 -139t139 -93t169.5 -34.5t169.5 34.5t139 93t93 139t34.5 169.5t-34.5 169.5t-93 139t-139 93t-169.5 34.5zM780 116q-54 -54 -123.5 -82.5t-145.5 -28.5t-145.5 28.5t-123.5 82.5
t-82.5 123.5t-28.5 145.5t28.5 145.5t82.5 123.5t123.5 82.5t145.5 28.5t145.5 -28.5t123.5 -82.5t82.5 -123.5t28.5 -145.5t-28.5 -145.5t-82.5 -123.5zM802 405h-262v262q0 12 -8.5 20.5t-20.5 8.5t-20.5 -8.5t-8.5 -20.5v-291q0 -12 8.5 -20.5t20.5 -8.5h291
q12 0 20.5 8.5t8.5 20.5t-8.5 20.5t-20.5 8.5z" />
    <glyph glyph-name="order" unicode="&#xe62f;" 
d="M683 419h-339q-8 0 -13.5 -6t-5.5 -14v-10q0 -8 5.5 -13.5t13.5 -5.5h339q7 0 12.5 5.5t5.5 13.5v10q0 8 -5.5 14t-12.5 6zM505 241h-162q-7 0 -12.5 -5.5t-5.5 -14.5v-10q0 -8 5.5 -13.5t12.5 -5.5h162q8 0 13 5.5t5 13.5v10q0 9 -5 14.5t-13 5.5zM850 834h-673
q-17 0 -28.5 -12t-11.5 -29v-817q0 -17 11.5 -29t28.5 -12h479q18 4 34 19l180 180q15 15 20 40v619q0 17 -12 29t-28 12zM840 141v1v0v-1zM840 182h-154q-26 0 -35 -9.5t-9 -34.5v-102v0v-52h-434q-9 0 -15 6.5t-6 16.5v755q0 10 6 16.5t15 6.5h610q9 0 15.5 -6.5
t6.5 -16.5v-580zM683 607h-339q-8 0 -13.5 -6t-5.5 -14v-10q0 -8 5.5 -14t13.5 -6h339q7 0 12.5 6t5.5 14v10q0 8 -5.5 14t-12.5 6z" />
    <glyph glyph-name="recharge" unicode="&#xe6ed;" 
d="M512 804q-174 0 -297 -123t-123 -297t123 -297t297 -123t297 123t123 297t-123 297t-297 123zM512 24q-149 0 -254.5 105.5t-105.5 254.5t105.5 254.5t254.5 105.5t254.5 -105.5t105.5 -254.5t-105.5 -254.5t-254.5 -105.5zM633 384q12 0 21 9t9 21t-9 21t-21 9h-91v14
l111 116q9 9 8.5 21.5t-9.5 21t-21 8.5t-21 -9l-95 -100l-101 100q-9 9 -21.5 9t-21 -9t-9 -21t8.5 -21l111 -111v-19h-89q-12 0 -21 -9t-9 -21t9 -21t21 -9h89v-60h-89q-12 0 -21 -9t-9 -21t9 -21t21 -9h89v-89q0 -13 9 -21.5t21 -8.5t21 8.5t9 21.5v89h91q12 0 21 9t9 21
t-9 21t-21 9h-91v60h91z" />
    <glyph glyph-name="home-active" unicode="&#xe608;" horiz-adv-x="1046" 
d="M937 444l-342 355q-32 34 -79.5 34t-80.5 -34l-341 -355q-16 -17 -23 -34.5t-6 -28t4 -18.5q16 -36 59 -36h50v-273q0 -48 31 -84t77 -36h145v289v12v11.5t0.5 8.5t2.5 7.5t5 4.5t7.5 3.5t11.5 0.5h115q7 0 11.5 -0.5t7.5 -3.5t5 -4.5t2.5 -7.5t0.5 -8.5v-11.5v-12v-289
h145q46 0 77 36t31 84v273h50q43 0 59 36q3 8 4 18.5t-6 28t-23 34.5v0z" />
    <glyph glyph-name="search" unicode="&#xe679;" 
d="M893 73l-154 153q69 92 69 208q0 94 -46 173.5t-126 126t-174 46.5t-173.5 -46.5t-125.5 -126t-46 -173.5t46 -174t125.5 -126t173.5 -46q116 0 208 69l153 -154q15 -15 35.5 -15t34.5 14.5t14 35t-14 35.5zM215 433.5q0 102.5 72.5 175t175 72.5t174.5 -72.5t72 -175
t-72 -174.5t-174.5 -72t-175 72t-72.5 174.5z" />
    <glyph glyph-name="location" unicode="&#xe609;" 
d="M463 -13q-28 30 -51 56t-72.5 88.5t-83.5 115t-61 117t-27 112.5q0 94 46 173t125 125.5t173 46.5t173 -46.5t125 -125.5t46 -173q0 -48 -27 -112.5t-61 -117t-83.5 -115t-72.5 -88.5t-51 -56q-15 -17 -21 -23.5t-15.5 -12.5t-12.5 -6t-12.5 6t-15.5 12.5t-21 23.5v0v0z
M512 776q-123 0 -211 -88t-88 -212q0 -32 11.5 -70t26.5 -70t44 -75t49 -70t57.5 -70t53.5 -61t51 -56l4 -4l4 4q45 48 74.5 80.5t75.5 90.5t73.5 103t49 99.5t21.5 98.5q2 124 -84.5 212t-211.5 88v0v0zM512 305q-71 0 -120 49.5t-49 120t49 120t120 49.5t120 -49.5
t49 -120t-49 -120t-120 -49.5v0v0zM512 595q-51 0 -86.5 -36t-35.5 -86.5t35.5 -86.5t86.5 -36t86.5 36t35.5 86.5t-35.5 86.5t-86.5 36v0v0zM512 595z" />
    <glyph glyph-name="home" unicode="&#xe60b;" 
d="M930 444l-339 352q-32 34 -79 34t-79 -34l-339 -352q-16 -17 -23 -34.5t-6 -28t4 -18.5q16 -35 58 -35h50v-271q0 -47 30.5 -83t76.5 -36h144v287v11.5v11t1 8.5t2.5 7.5l4.5 4.5t7.5 3.5t11.5 0.5h114q7 0 11.5 -0.5t7.5 -3.5l4.5 -4.5t2.5 -7.5t1 -8.5v-11v-11.5v-287
h144q46 0 76.5 36t30.5 83v271h50q42 0 58 35q3 8 4 18.5t-6 28t-23 34.5zM897 384h-106v-327q0 -24 -14.5 -43.5t-36.5 -19.5h-88v231q0 103 -83 103h-114q-83 0 -83 -103v-231h-88q-22 0 -36.5 19.5t-14.5 43.5v327h-106l-1 2l-1 2q9 16 10 18l339 352q16 17 38 16
q21 1 38 -16l339 -352q1 -2 10 -18l-1 -2z" />
    <glyph glyph-name="calendar" unicode="&#xe605;" 
d="M708 108h35q15 0 25.5 8t10.5 19t-10.5 19t-25.5 8h-35q-15 0 -25.5 -8t-10.5 -19t10.5 -19t25.5 -8zM708 269h35q15 0 25.5 8t10.5 19t-10.5 19t-25.5 8h-35q-15 0 -25.5 -8t-10.5 -19t10.5 -19t25.5 -8zM494 269h35q15 0 25.5 8t10.5 19t-10.5 19t-25.5 8h-35
q-15 0 -25.5 -8t-10.5 -19t10.5 -19t25.5 -8zM280 269h34q15 0 25.5 8t10.5 19t-10.5 19t-25.5 8h-34q-15 0 -26 -8t-11 -19t11 -19t26 -8zM494 108h35q15 0 25.5 8t10.5 19t-10.5 19t-25.5 8h-35q-15 0 -25.5 -8t-10.5 -19t10.5 -19t25.5 -8zM280 108h34q15 0 25.5 8
t10.5 19t-10.5 19t-25.5 8h-34q-15 0 -26 -8t-11 -19t11 -19t26 -8zM782 698h-54v76v2q0 11 -7.5 18.5t-18.5 7.5t-18.5 -7.5t-7.5 -17.5v0v-79h-326v76v2q0 11 -8 18.5t-18.5 7.5t-18.5 -7.5t-8 -17.5v0v-79h-57q-68 0 -112.5 -46.5t-44.5 -130.5v-414q0 -62 41 -107.5
t101 -51.5l557 -1q65 0 111.5 47t46.5 113v431q0 66 -46.5 113t-111.5 47zM886 91q0 -37 -28 -63.5t-68 -26.5h-558q-39 0 -67.5 26.5t-28.5 63.5v339h750v-339zM886 554v-71h-750v71q0 35 29.5 62.5t77.5 27.5h54v-80v0q1 -11 8.5 -18.5t17.5 -7.5q11 0 19 8t8 19v2v77h326
v-80v0q0 -11 7.5 -18.5t18.5 -7.5t18.5 8t7.5 19v2v77h51q42 0 76.5 -26.5t30.5 -63.5z" />
    <glyph glyph-name="map" unicode="&#xe604;" 
d="M909 606l-79 23q-11 63 -58 101t-111 38q-62 0 -108.5 -36.5t-59.5 -95.5l-120 -34q-4 -3 -10 -3q-9 0 -13 3l-209 59q-4 2 -13 2q-18 0 -30.5 -12.5t-12.5 -29.5v-504q0 -14 8.5 -25.5t21.5 -14.5l235 -73q4 -2 12.5 -2t10.5 2l276 79q4 2 10 2q9 0 13 -2l209 -64
q4 -2 13 -2q17 0 30 12.5t13 30.5v505q1 14 -7 26t-21 15zM363 555v-510l-235 72v504l211 -62q4 -1 11.5 -2t12.5 -2v0v0zM661.5 725q54.5 0 91 -35.5t36.5 -87.5q0 -43 -32 -88q-27 -38 -96 -141q-12 19 -46.5 69.5t-49.5 71.5q-32 45 -32 88q0 52 37 87.5t91.5 35.5z
M896 58l-209 64h-4v4v128q0 9 -6 15t-15.5 6t-15.5 -6t-6 -15v-128v-4h-4l-231 -64v497q0 2 -1 5t-1 5l90 26q2 -44 38 -100q14 -19 48 -69t48 -70q13 -19 36.5 -19t36.5 19q57 88 96 139q36 51 38 96l64 -20v-509h-2zM661.5 533q27.5 0 45.5 18.5t18 46t-18 45.5t-45.5 18
t-46 -18t-18.5 -45.5t18.5 -46t46 -18.5zM661.5 619q9.5 0 15.5 -6t6 -15.5t-6 -15.5t-15.5 -6t-15.5 6t-6 15.5t6 15.5t15.5 6z" />
    <glyph glyph-name="plane" unicode="&#xe6ef;" 
d="M917 803q-4 2 -9 2q-14 0 -24 -10q-720 -403 -770 -432q-24 -14 -22 -38q1 -20 19 -26q245 -86 246 -86l4 -2l14 47l-215 75l660 382q-184 -232 -369 -464q-25 -31 -25 -67l1 -144h-1l1 -50v-2q0 -10 6.5 -16.5t15.5 -6.5t15.5 6.5t7.5 16.5v192q-1 19 9 32
q91 114 394 495q-95 -521 -109 -598q-1 -4 -3 -4h-1q-10 3 -237 80l-4 1l-15 -47l5 -2l17 -5.5t41.5 -14t54 -18.5t56 -19t46.5 -15.5t25 -8.5q7 -2 13 -2q17 0 30 12.5t17 31.5q1 9 47 261q71 394 73 402v3q5 29 -14 39z" />
    <glyph glyph-name="tuijian" unicode="&#xe632;" 
d="M924 541l-402 -231q-4 -2 -8.5 -2t-8.5 2l-406 232q-9 5 -9 15.5t9 15.5l403 231q8 4 17 0l405 -232q9 -5 9 -15.5t-9 -15.5zM510 742l-331 -179l334 -191l342 184zM116 413l397 -227l394 226q7 3 14 1t10 -8q4 -6 1.5 -26t-8.5 -24l-402 -230q-4 -3 -8.5 -3t-8.5 3
l-406 232q-6 3 -8 23t2 26q3 7 10 9t13 -2v0zM116 253l397 -227l394 226q7 3 14 1t10 -8q4 -6 1.5 -26.5t-8.5 -23.5l-402 -230q-4 -3 -8.5 -3t-8.5 3l-406 232q-6 3 -8 23t2 26q3 7 10 9t13 -2v0z" />
    <glyph glyph-name="contact" unicode="&#xe62a;" 
d="M512 806q-115 0 -212 -56.5t-153.5 -153.5t-56.5 -212t56.5 -212t153.5 -153.5t212 -56.5t212 56.5t153.5 153.5t56.5 212t-56.5 212t-153.5 153.5t-212 56.5zM512 0q-104 0 -192.5 51.5t-140 140t-51.5 192.5t51.5 192.5t140 140t192.5 51.5t192.5 -51.5t140 -140
t51.5 -192.5t-51.5 -192.5t-140 -140t-192.5 -51.5v0zM744 247q0 13 -9 22q-3 3 -6 5l-89 69q-9 9 -23 9q-10 0 -19 -6l-25 -25v0q-6 -7 -15 -7q-11 0 -18 9v-0.5v-0.5q-53 39 -90 90h0.5h0.5q-9 7 -9 18q0 9 7 16v0l25 25q6 8 6 19q0 13 -9 22l-69 89q-3 4 -5 6q-9 9 -22 9
q-34 0 -64.5 -33.5t-30.5 -77.5q0 -24 10 -47v0q48 -95 124.5 -171.5t171.5 -124.5v0q23 -10 47 -10q44 0 77.5 30.5t33.5 64.5v0v0z" />
    <glyph glyph-name="manage" unicode="&#xe626;" 
d="M416 790h-295q-12 0 -20.5 -9t-8.5 -21v-312q0 -12 8.5 -21t20.5 -9h295q13 0 21.5 9t8.5 21v312q0 12 -8.5 21t-21.5 9zM387 477h-236v254h236v-254zM416 318h-295q-12 0 -20.5 -9t-8.5 -21v-295q0 -12 8.5 -20.5t20.5 -8.5h295q13 0 21.5 8.5t8.5 20.5v295
q0 12 -8.5 21t-21.5 9zM387 23h-236v236h236v-236zM888 318h-295q-12 0 -20.5 -9t-8.5 -21v-295q0 -12 8.5 -20.5t20.5 -8.5h295q13 0 21.5 8.5t8.5 20.5v295q0 12 -8.5 21t-21.5 9zM859 23h-236v236h236v-236zM968 631l-208 209q-9 9 -21 9t-21 -9l-209 -209
q-8 -8 -8 -20.5t8 -20.5l209 -209q9 -9 21 -9t21 9l208 209q9 8 9 20.5t-9 20.5zM739 444l-167 166l167 167l167 -167z" />
    <glyph glyph-name="user-active" unicode="&#xe614;" 
d="M954 384q0 91 -35 173q-33 79 -94.5 140.5t-140.5 95.5q-83 35 -173 35t-173 -35q-79 -34 -140.5 -95.5t-94.5 -140.5q-35 -82 -35 -172.5t35 -172.5q31 -75 88 -134l-1 -1l9 -7q21 -21 44 -38v-1v0q38 -28 81 -48l1 -1h1q7 -4 12 -6q44 -18 90 -27h1h1q40 -8 81 -8
q69 0 134 21h2l1 1q98 31 172 104l11 10v1q55 57 87 131q36 84 36 175zM813 108q-16 34 -39 64v0q-46 61 -115 96q-31 16 -63 25q39 22 62.5 61.5t23.5 86.5q0 71 -50 121t-121 50t-121 -50t-50 -121q0 -46 23 -85.5t61 -61.5q-59 -15 -109 -50q-72 -51 -110 -131
q-103 116 -103 271q0 111 54.5 205.5t149 149.5t205.5 55t205 -55t149 -149.5t55 -205.5q0 -159 -107 -276z" />
    <glyph glyph-name="arrow-top" unicode="&#xe600;" 
d="M485 610l-399 -399q-11 -10 -11 -25.5t10.5 -26t26 -10.5t25.5 11l375 373l373 -374q11 -11 26 -11t25.5 11t10.5 26t-11 25l-398 400q-11 11 -26.5 11t-26.5 -11z" />
    <glyph glyph-name="next" unicode="&#xe601;" 
d="M737 411l-399 399q-11 11 -26 11t-25.5 -11t-10.5 -26t10 -26l374 -374l-374 -373q-11 -11 -11 -26t10.5 -26t25.5 -11t26 11l400 398q10 11 10 27t-10 27z" />
    <glyph glyph-name="arrow-bottom" unicode="&#xe603;" 
d="M537 159l399 399q11 10 11 25.5t-10.5 26t-25.5 10.5t-26 -11l-374 -373l-374 374q-10 11 -25.5 11t-26 -11t-10.5 -26t11 -25l398 -400q11 -11 26.5 -11t26.5 11z" />
    <glyph glyph-name="back" unicode="&#xe602;" 
d="M286 358l398 -399q11 -11 26 -11t26 11t11 26t-11 26l-373 374l374 373q10 11 10 26t-10.5 26t-25.5 11t-26 -11l-399 -398q-11 -11 -11 -27t11 -27z" />
    <glyph glyph-name="user" unicode="&#xe69e;" 
d="M512 824q-89 0 -170.5 -35t-140.5 -94t-94 -140.5t-35 -170.5t35 -170.5t94 -140.5t140.5 -94t170.5 -35t170.5 35t140.5 94t94 140.5t35 170.5t-35 170.5t-94 140.5t-140.5 94t-170.5 35zM511.5 -14q-83.5 0 -158 33t-129.5 91q37 85 115 137.5t173 52.5t173 -52.5
t115 -137.5q-55 -58 -130 -91t-158.5 -33zM386 468q0 52 37 89t89 37t89 -37t37 -89t-37 -89t-89 -37t-89 37t-37 89zM606 329q34 23 54 59.5t20 79.5q0 69 -49.5 118t-118.5 49t-118.5 -49t-49.5 -118q0 -43 20 -79.5t54 -59.5q-72 -20 -131 -68.5t-93 -114.5
q-80 106 -80 238q0 108 53.5 199.5t145 145t199.5 53.5t200 -53.5t145 -145t53 -199.5q0 -132 -80 -238q-34 66 -93 114.5t-131 68.5z" />
    <glyph glyph-name="wifi" unicode="&#xe607;" 
d="M522.5 467q-40.5 0 -78.5 -9t-62.5 -20.5t-46.5 -26t-30 -22t-13 -12.5q-23 -23 -23 -56t23.5 -56.5t56.5 -23.5t56 24h1q5 5 14.5 13t40 21t62.5 13q31 0 61.5 -13t40.5 -21t15 -13v0q23 -24 56 -24q34 0 57 23.5t23 56.5t-23 56q-5 5 -13 12.5t-30 22t-46.5 26
t-62.5 20.5t-78.5 9zM723 295q-11 -11 -26.5 -11t-26.5 11q-3 3 -8 7.5t-20 14.5t-31 17.5t-40 13.5t-48 6q-39 0 -76 -15.5t-50.5 -26t-20.5 -17.5q-11 -11 -26.5 -11t-26.5 11t-11 26.5t11 26.5h1q0 2 7.5 8.5t25.5 18.5t40 23t56 19t70 8t70 -8.5t55 -18t41 -23.5
t24.5 -18t8.5 -9h1q11 -11 11 -26.5t-11 -26.5zM922 568v0q-37 37 -110 77q-139 77 -289.5 77t-289.5 -77q-72 -39 -109 -77h-1q-23 -23 -23 -56t23.5 -56t56 -23t55.5 23q26 25 80 55q100 54 208 54q107 0 207 -54q49 -26 80 -55q24 -23 56 -23q33 0 56 23t23 56t-23 56z
M892.5 486q-10.5 -11 -26 -11t-26.5 11v0v0v0q-43 37 -88 61q-111 61 -230 61t-229 -60q-53 -30 -87 -61q0 -1 -1 -1q-11 -10 -26 -10t-26 10.5t-11 25.5t11 26q33 34 102 71q128 70 267 70t268 -70q65 -35 102 -71q11 -11 11 -26t-10.5 -26zM523 213q-35 0 -60 -24.5
t-25 -59.5t25 -60t60 -25t59.5 25t24.5 60t-24.5 59.5t-59.5 24.5zM522.5 86q-17.5 0 -30 12.5t-12.5 30t12.5 30t30 12.5t30 -12.5t12.5 -30t-12.5 -30t-30 -12.5z" />
    <glyph glyph-name="manage-active" unicode="&#xe610;" 
d="M919 650l-162 162q-16 17 -40 17t-40 -17l-162 -162q-17 -16 -17 -40t17 -41l162 -161q16 -17 40 -17t40 17l162 161q17 17 17 41t-17 40v0zM717 448l-162 162l162 162l162 -162zM374 781h-229q-23 0 -40 -16.5t-17 -40.5v-228q0 -24 17 -41t40 -17h229q24 0 40.5 17
t16.5 41v228q0 24 -16.5 40.5t-40.5 16.5v0zM374 324h-229q-23 0 -40 -16.5t-17 -40.5v-229q0 -23 17 -40t40 -17h229q24 0 40.5 17t16.5 40v229q0 24 -16.5 40.5t-40.5 16.5v0zM831 324h-228q-24 0 -41 -16.5t-17 -40.5v-229q0 -23 17 -40t41 -17h228q24 0 41 17t17 40v229
q0 24 -17 40.5t-41 16.5v0z" />
    <glyph glyph-name="plane-active" unicode="&#xe677;" 
d="M65 310l895 461l-236 -771l-264 120l-112 -120v163l501 504l-598 -452z" />
    <glyph glyph-name="guide" unicode="&#xe611;" 
d="M512 0q104 0 192.5 51.5t140 140t51.5 192.5t-51.5 192.5t-140 140t-192.5 51.5t-192.5 -51.5t-140 -140t-51.5 -192.5t51.5 -192.5t140 -140t192.5 -51.5zM512 -64q-91 0 -173.5 35.5t-143 96t-96 143t-35.5 173.5t35.5 173.5t96 143t143 96t173.5 35.5t173.5 -35.5
t143 -96t96 -143t35.5 -173.5t-35.5 -173.5t-96 -143t-143 -96t-173.5 -35.5zM256 128q12 33 31 82.5t62.5 145.5t68.5 122t113 66.5t161 68t76 27.5q-12 -33 -31 -82.5t-62.5 -145.5t-68.5 -122t-112.5 -66.5t-162.5 -68.5zM560 339l-93 93q-10 10 -39 -43.5t-52.5 -109.5
t-23.5 -58q15 6 38 16t72 33t77.5 42t20.5 27z" />
    <glyph glyph-name="guide-active" unicode="&#xe615;" 
d="M560 340l-93 92q-10 10 -39 -43t-52.5 -109.5t-23.5 -58.5q14 6 37.5 16.5t72.5 33t77.5 42t20.5 27.5zM511.5 832q-90.5 0 -173.5 -35.5t-143 -95.5t-95.5 -143t-35.5 -173.5t35.5 -173.5t95.5 -143t143 -95.5t173.5 -35.5t173.5 35.5t143 95.5t95.5 143t35.5 173.5
t-35.5 173.5t-95.5 143t-143 95.5t-173.5 35.5zM606 290q-52 -55 -336 -156l-14 -6q12 33 31 83t62.5 145.5t68.5 122t112.5 67t162.5 67.5l75 27q-12 -32 -31 -82t-62.5 -145.5t-68.5 -122.5z" />
    <glyph glyph-name="breakfast" unicode="&#xe7b8;" 
d="M372.5 588q9.5 0 15 6t5.5 15v167q0 9 -5.5 15t-15 6t-15 -6t-5.5 -15v-167q0 -9 5.5 -15t15 -6zM289.5 588q9.5 0 15 6t5.5 15v167q0 9 -5.5 15t-15 6t-15 -6t-5.5 -15v-167q0 -9 5.5 -15t15 -6zM455.5 797q-9.5 0 -15 -6t-5.5 -15v-298q0 -17 -12 -29l-38 -38l-12 -14
v-350q0 -18 -12.5 -30t-29.5 -12t-29.5 12t-12.5 30v350l-50 50q-13 13 -13 29v300q0 9 -5.5 15t-14.5 6t-15 -6t-6 -15v-298q0 -37 25 -59l37 -39v-334q0 -34 25 -58.5t59.5 -24.5t59 24.5t24.5 58.5v334l37 38q25 25 25 58v300q0 9 -6 15t-15.5 6zM790 797
q-86 0 -147.5 -61.5t-61.5 -147.5v-334l84 -83v-124q0 -35 24.5 -59.5t59 -24.5t59 24.5t24.5 59.5v708q-1 17 -13 29.5t-29 12.5zM790 46q0 -17 -12.5 -29t-30 -12t-29.5 12t-12 29v142l-83 84v316q0 69 49 118t117 49v-708z" />
  </font>
</defs>
</svg>
